<svg width="136" height="136" viewBox="0 0 136 136" fill="none" xmlns="http://www.w3.org/2000/svg">
<path fill-rule="evenodd" clip-rule="evenodd" d="M68 0C30.4446 0 0 30.4446 0 68C0 105.555 30.4446 136 68 136C105.555 136 136 105.555 136 68C136 30.4446 105.555 0 68 0ZM82.4806 44.8934H53.5178C53.5178 39.1007 55.6674 36.3159 58.9611 33.6616L54.0044 26.2252C53.1163 24.8931 53.4755 23.097 54.8076 22.2089C56.1397 21.3235 57.9385 21.68 58.8239 23.0121L64.1463 30.9951C65.3811 30.6528 66.6558 30.411 67.9994 30.411C69.3429 30.411 70.6178 30.6528 71.8524 30.9951L77.1746 23.0121C78.06 21.68 79.8532 21.3235 81.191 22.2089C82.5231 23.0972 82.8822 24.8933 81.9941 26.2254L77.0374 33.6614C80.3309 36.3159 82.4806 39.1007 82.4806 44.8934ZM97.5416 66.326L109.127 75.0148C111.686 76.9324 112.204 80.5642 110.284 83.124C109.147 84.6401 107.407 85.4407 105.645 85.4407C104.438 85.4407 103.219 85.0649 102.175 84.2815L92.1364 76.7531H88.2741V80.4521C88.4199 80.5011 88.47 80.5364 88.5373 80.5837C88.5457 80.5897 88.5544 80.5958 88.5636 80.6022C88.5721 80.6081 88.581 80.6141 88.5905 80.6205L97.279 86.413C97.3032 86.4289 97.3242 86.4478 97.3452 86.4667C97.3553 86.4758 97.3654 86.485 97.3758 86.4937C97.3843 86.5008 97.393 86.5077 97.4021 86.5142C97.5922 86.6485 97.7676 86.8005 97.9415 86.9582C97.9641 86.9786 97.9868 86.9988 98.0094 87.0191C98.1022 87.102 98.1947 87.1845 98.2788 87.2743C98.4201 87.4249 98.5447 87.5896 98.6705 87.7565L98.7272 87.8317C98.8147 87.9472 98.9019 88.0625 98.9781 88.185C99.064 88.324 99.1364 88.4714 99.2093 88.6197L99.2376 88.6772C99.3261 88.8569 99.4123 89.0351 99.4817 89.2224C99.4923 89.2507 99.5056 89.2772 99.5189 89.3037C99.5271 89.32 99.5352 89.3363 99.5428 89.353C99.5497 89.3681 99.556 89.3837 99.5615 89.3998L105.354 106.777C106.366 109.812 104.726 113.093 101.691 114.106C101.083 114.309 100.464 114.405 99.8584 114.405C97.4316 114.405 95.1717 112.87 94.3627 110.443L89.1982 94.949L86.6979 93.2824C83.632 100.585 76.4154 105.714 67.9995 105.714C59.5837 105.714 52.3671 100.585 49.3011 93.2824L46.8009 94.949L41.6363 110.443C40.8273 112.87 38.5675 114.405 36.1407 114.405C35.5354 114.405 34.9159 114.309 34.3079 114.106C31.273 113.093 29.6324 109.812 30.6451 106.777L36.4376 89.3998C36.449 89.3659 36.4645 89.3349 36.4801 89.3038C36.4933 89.2773 36.5067 89.2507 36.5174 89.2224C36.586 89.0358 36.6731 88.8575 36.7614 88.6786L36.7899 88.6206C36.8627 88.4719 36.9352 88.3239 37.0215 88.1844C37.0985 88.0599 37.1871 87.9433 37.2763 87.8259L37.3277 87.7581L37.3367 87.7461C37.4594 87.5833 37.5814 87.4214 37.7201 87.2745C37.8051 87.1838 37.8984 87.1005 37.9922 87.0167L38.0573 86.9584C38.2313 86.8007 38.4065 86.6487 38.5968 86.5144C38.6172 86.4999 38.6354 86.4834 38.6536 86.4669C38.6745 86.448 38.6955 86.429 38.7197 86.4132L47.4084 80.6207C47.4163 80.6153 47.4239 80.6102 47.4311 80.6052C47.4417 80.5979 47.4516 80.5909 47.4611 80.5842C47.5285 80.5367 47.5786 80.5014 47.7248 80.4523V76.7531H43.8625L33.8236 84.2818C32.78 85.0653 31.561 85.4405 30.3533 85.4405C28.5912 85.4405 26.8518 84.6401 25.7148 83.124C23.7941 80.5642 24.3119 76.9325 26.8715 75.015L38.4565 66.3261C38.4757 66.3117 38.4963 66.3005 38.5169 66.2893C38.5358 66.2791 38.5546 66.2689 38.5725 66.2561C38.7528 66.1272 38.947 66.0202 39.1428 65.9124L39.1453 65.911C39.1844 65.8893 39.2232 65.867 39.262 65.8446C39.3619 65.7871 39.4622 65.7294 39.566 65.6826C39.717 65.615 39.8746 65.5643 40.0331 65.5132C40.0669 65.5024 40.1008 65.4915 40.1346 65.4804C40.1768 65.4665 40.219 65.4522 40.2611 65.4378C40.3901 65.3939 40.5192 65.3499 40.6508 65.32C40.7766 65.2912 40.9057 65.2757 41.0355 65.2601L41.0896 65.2535C41.117 65.2502 41.1445 65.2467 41.172 65.2431L41.2441 65.2336C41.4275 65.2095 41.6098 65.1855 41.7942 65.1812C41.816 65.1805 41.8373 65.1775 41.8586 65.1746C41.8831 65.1712 41.9075 65.1678 41.9328 65.1678H47.7248V64.3423C47.5438 64.2822 47.5088 64.2596 47.4084 64.1932L38.7277 58.4055L38.7163 58.3978C38.282 58.1079 37.92 57.7564 37.5912 57.3817C37.5085 57.287 37.4321 57.1909 37.355 57.0904C37.0362 56.6739 36.7596 56.2335 36.5666 55.7561C36.5654 55.7531 36.5638 55.7504 36.5621 55.7478C36.559 55.7432 36.5556 55.739 36.5532 55.7335L30.7607 41.2522C29.5729 38.2796 31.0182 34.911 33.988 33.7202C36.9662 32.5436 40.3292 33.9805 41.5199 36.9475L46.6457 49.7616L48.9367 51.2892C49.4168 50.9357 49.9796 50.6859 50.6217 50.6859H85.3767C86.0186 50.6859 86.5815 50.9357 87.0616 51.2892L89.3526 49.7614L94.4784 36.9475C95.6663 33.9805 99.0264 32.538 102.01 33.7202C104.98 34.911 106.425 38.2796 105.238 41.2522L99.4451 55.7335C99.4416 55.742 99.4353 55.7476 99.4317 55.7561C99.2387 56.2335 98.9616 56.6746 98.6426 57.0912C98.5655 57.1914 98.4898 57.287 98.4071 57.3817C98.0789 57.7564 97.7161 58.1078 97.2821 58.3978L97.2708 58.4055L88.59 64.1932C88.4897 64.2596 88.4546 64.2822 88.2735 64.3423V65.1676H94.0655C94.0912 65.1676 94.1156 65.171 94.14 65.1744C94.1613 65.1773 94.1828 65.1803 94.2049 65.181C94.4025 65.1857 94.5982 65.2122 94.7949 65.2387L94.8341 65.244C94.8667 65.2483 94.8992 65.2523 94.9318 65.2562L94.967 65.2604C95.0945 65.2755 95.2215 65.2906 95.3453 65.3189C95.4852 65.3505 95.6217 65.3971 95.7583 65.4436L95.8065 65.46C95.8187 65.4642 95.831 65.4683 95.8432 65.4724C95.8552 65.4764 95.8672 65.4804 95.8792 65.4844C95.9156 65.4964 95.952 65.5083 95.9884 65.5201L95.9896 65.5204C96.1386 65.5687 96.2867 65.6167 96.4285 65.6803C96.5359 65.7286 96.6393 65.788 96.7429 65.8476C96.7832 65.8707 96.8235 65.8939 96.8641 65.9165L96.9022 65.9377C97.0811 66.0372 97.2593 66.1364 97.4249 66.2552C97.4426 66.2679 97.4614 66.2781 97.4802 66.2883C97.5013 66.2997 97.5223 66.3111 97.5416 66.326ZM67.9992 85.4402C69.5987 85.4402 70.8955 84.1433 70.8955 82.5438V65.1663C70.8955 63.5668 69.5987 62.27 67.9992 62.27C66.3997 62.27 65.1028 63.5668 65.1028 65.1663V82.5438C65.1028 84.1433 66.3997 85.4402 67.9992 85.4402Z" fill="#FCE566"/>
</svg>
