<svg id="Layer_1" data-name="Layer 1" xmlns="http://www.w3.org/2000/svg" viewBox="0 0 200 200"><defs><style>.cls-1{fill:#69676c;}</style></defs><title>Wondicon - UI (Free)</title><path class="cls-1" d="M100,175.68a75.68,75.68,0,1,1,13-150.23,5,5,0,0,1-.06,9.86,45,45,0,1,0,39.11,76.22h0A44.7,44.7,0,0,0,164.69,87a5,5,0,0,1,4.91-4.2h0a5,5,0,0,1,4.92,4.14A75.67,75.67,0,0,1,100,175.68ZM87.52,35.53a65.69,65.69,0,1,0,77,77,56.49,56.49,0,0,1-5.28,6.12A55,55,0,0,1,81.4,40.81,55.41,55.41,0,0,1,87.52,35.53Z"/><path class="cls-1" d="M125,105H100a5,5,0,0,1-3.54-8.54L112.93,80H100a5,5,0,0,1,0-10h25a5,5,0,0,1,3.54,8.54L112.07,95H125a5,5,0,0,1,0,10Z"/><path class="cls-1" d="M170.68,59.32h-25a5,5,0,0,1-3.54-8.53l16.47-16.47H145.68a5,5,0,0,1,0-10h25a5,5,0,0,1,3.54,8.54L157.75,49.32h12.93a5,5,0,0,1,0,10Z"/></svg>
