<svg width="28" height="28" viewBox="0 0 28 28" fill="#69676c" xmlns="http://www.w3.org/2000/svg">
	<path d="M4.79999 14C4.79999 13.3376 4.26241 12.8 3.59997 12.8H1.20002C0.537582 12.8 0 13.3376 0 14C0 14.6624 0.537582 15.2 1.20002 15.2H3.60001C4.26241 15.2 4.79999 14.6624 4.79999 14ZM6.00001 20.8C5.66881 20.8 5.36882 20.9344 5.15118 21.1512L3.5512 22.7512C3.33438 22.9688 3.20001 23.2688 3.20001 23.6C3.20001 24.2625 3.73681 24.8 4.40003 24.8C4.73122 24.8 5.03122 24.6656 5.24803 24.4481L6.84806 22.848C7.06565 22.6313 7.20007 22.3313 7.20007 22.0001C7.20003 21.3376 6.66322 20.8 6.00001 20.8ZM14 4.79999C14.6632 4.79999 15.2 4.26241 15.2 3.59997V1.20002C15.2 0.537582 14.6632 0 14 0C13.3368 0 12.8 0.537582 12.8 1.20002V3.60001C12.8 4.26241 13.3368 4.79999 14 4.79999ZM22 7.20003C22.3312 7.20003 22.6312 7.06561 22.848 6.84884L24.448 5.24881C24.6656 5.03122 24.7999 4.73122 24.7999 4.40003C24.7999 3.73763 24.2632 3.20001 23.5999 3.20001C23.2688 3.20001 22.9687 3.33442 22.7511 3.55202L21.1511 5.152C20.9343 5.36882 20.7999 5.66881 20.7999 6.00001C20.8 6.6624 21.3368 7.20003 22 7.20003ZM5.15118 6.84879C5.36877 7.06556 5.66877 7.19998 6.00001 7.19998C6.6624 7.19998 7.20003 6.6624 7.20003 5.99996C7.20003 5.66876 7.06561 5.36877 6.84884 5.15118L5.24881 3.5512C5.03122 3.33438 4.73122 3.20001 4.40003 3.20001C3.73763 3.20001 3.20001 3.73759 3.20001 4.40003C3.20001 4.73122 3.33443 5.03122 3.5512 5.24803L5.15118 6.84879ZM26.8 12.8H24.4C23.7376 12.8 23.2 13.3376 23.2 14C23.2 14.6624 23.7376 15.2 24.4 15.2H26.8C27.4624 15.2 28 14.6624 28 14C28 13.3376 27.4624 12.8 26.8 12.8ZM22.8488 21.1512C22.6312 20.9344 22.3312 20.8 22 20.8C21.3376 20.8 20.8 21.3376 20.8 22C20.8 22.3312 20.9344 22.6312 21.1512 22.848L22.7512 24.448C22.9688 24.6656 23.2688 24.8 23.6 24.8C24.2624 24.8 24.8 24.2624 24.8 23.6C24.8 23.2688 24.6656 22.9688 24.4488 22.7512L22.8488 21.1512ZM14 23.2C13.3368 23.2 12.8 23.7376 12.8 24.4V26.8C12.8 27.4624 13.3368 28 14 28C14.6632 28 15.2 27.4624 15.2 26.8V24.4C15.2 23.7376 14.6632 23.2 14 23.2ZM14 5.6C9.36801 5.6 5.6 9.36801 5.6 14C5.6 18.632 9.36801 22.4 14 22.4C18.632 22.4 22.4 18.632 22.4 14C22.4 9.36801 18.632 5.6 14 5.6ZM14 20C10.6912 20 7.99999 17.3088 7.99999 14C7.99999 10.6912 10.6912 7.99999 14 7.99999C17.3088 7.99999 20 10.6912 20 14C20 17.3088 17.3088 20 14 20Z" fill="#69676c"/>
</svg>
