<svg width="50" height="50" viewBox="0 0 50 50" fill="none" xmlns="http://www.w3.org/2000/svg">
<g opacity="0.8">
<path d="M48.6667 28.7498L42.0002 24.0624C41.979 24.0471 41.9545 24.0387 41.933 24.0242C41.8309 23.9555 41.7206 23.8991 41.6103 23.8415C41.5268 23.798 41.4455 23.7502 41.3596 23.714C41.2579 23.6712 41.1505 23.6416 41.0435 23.6084C40.9414 23.5767 40.8405 23.5412 40.7363 23.5191C40.6403 23.4985 40.541 23.4909 40.4421 23.4787C40.3213 23.4634 40.2013 23.4474 40.08 23.4447C40.0527 23.4439 40.0275 23.4375 39.9998 23.4375H36.6669V22.9922C36.771 22.9598 36.7912 22.9476 36.8489 22.9118L41.8443 19.7895L41.8508 19.7853C42.1006 19.6289 42.3093 19.4393 42.4982 19.2372C42.5458 19.1861 42.5893 19.1345 42.6337 19.0804C42.8173 18.8557 42.9767 18.6177 43.0878 18.3602C43.0899 18.3556 43.0935 18.3526 43.0955 18.348L46.4288 10.5357C47.1123 8.93206 46.2807 7.11477 44.5717 6.47239C42.8546 5.83459 40.921 6.61282 40.2374 8.2134L37.2878 15.1262L35.9695 15.9504C35.6932 15.7597 35.3692 15.6249 34.9999 15.6249H15.0002C14.6307 15.6249 14.3068 15.7597 14.0306 15.9504L12.7122 15.1263L9.7626 8.2134C9.07738 6.61282 7.14215 5.83762 5.42837 6.47239C3.71939 7.11477 2.88771 8.93206 3.57126 10.5357L6.90454 18.348C6.90662 18.3526 6.91027 18.3556 6.91225 18.3602C7.02329 18.6177 7.18246 18.8553 7.3659 19.08C7.41028 19.1342 7.45423 19.1861 7.50184 19.2372C7.69101 19.4393 7.89935 19.629 8.14925 19.7853L8.15581 19.7895L13.1511 22.9118C13.2089 22.9476 13.229 22.9598 13.3332 22.9922V23.4376H10.0002C9.97292 23.4376 9.94729 23.444 9.92042 23.4448C9.80042 23.4474 9.68198 23.4636 9.56239 23.4782C9.46145 23.4908 9.3602 23.4987 9.26249 23.5197C9.16197 23.5411 9.06436 23.5757 8.9654 23.6062C8.85467 23.6402 8.74363 23.671 8.63821 23.7153C8.55519 23.7503 8.47665 23.7965 8.39612 23.8385C8.283 23.8969 8.1707 23.9548 8.06654 24.0247C8.04497 24.0391 8.02091 24.0475 7.99976 24.0625L1.33321 28.7499C-0.139733 29.7843 -0.437654 31.7435 0.667571 33.1245C1.32185 33.9424 2.3228 34.3742 3.33678 34.3742C4.03179 34.3742 4.73326 34.1717 5.33379 33.7491L11.1106 29.6876H13.3332V31.6832C13.229 31.716 13.2096 31.7374 13.1511 31.774L8.15122 34.8989C8.12518 34.9149 8.1057 34.9367 8.08049 34.9535C7.97101 35.026 7.87018 35.108 7.77007 35.193C7.70372 35.2491 7.63622 35.3033 7.57601 35.3636C7.49424 35.4448 7.42257 35.5344 7.35017 35.6245C7.28913 35.7004 7.22684 35.7744 7.17402 35.8545C7.11788 35.9395 7.07194 36.0303 7.02433 36.1211C6.9735 36.2176 6.92339 36.3137 6.88391 36.4144C6.87048 36.4476 6.85016 36.4762 6.83798 36.5101L3.5047 45.8849C2.92198 47.5221 3.86606 49.2921 5.61244 49.8383C5.96234 49.9481 6.3188 50 6.66714 50C8.06362 50 9.36406 49.1715 9.82958 47.8623L12.8015 39.5038L14.2403 38.6047C16.0046 42.544 20.1573 45.3111 25.0002 45.3111C29.8431 45.3111 33.9959 42.544 35.7602 38.6047L37.199 39.5038L40.1709 47.8623C40.6364 49.1715 41.9368 50 43.3333 50C43.6817 50 44.038 49.9481 44.388 49.8383C46.1344 49.292 47.0784 47.5221 46.4958 45.8849L43.1625 36.5101C43.1503 36.4762 43.1299 36.4475 43.1165 36.4144C43.0766 36.3134 43.0271 36.2173 42.9761 36.1203C42.9285 36.0299 42.8826 35.9394 42.8267 35.8548C42.7734 35.7743 42.7108 35.6999 42.6498 35.6236C42.5774 35.5336 42.5057 35.4447 42.4243 35.3635C42.3641 35.3032 42.2965 35.249 42.2303 35.1929C42.1302 35.1079 42.0292 35.0259 41.9199 34.9534C41.8946 34.9366 41.8751 34.9148 41.849 34.8988L36.8493 31.7739C36.7906 31.7373 36.7713 31.7159 36.6672 31.6831V29.6876H38.8897L44.6665 33.7489C45.267 34.1716 45.9686 34.3743 46.6635 34.3743C47.6774 34.3743 48.6784 33.9424 49.3327 33.1245C50.4376 31.7435 50.1397 29.7842 48.6667 28.7498ZM26.6667 32.8115C26.6667 33.6744 25.9204 34.374 25 34.374C24.0796 34.374 23.3333 33.6744 23.3333 32.8115V23.4368C23.3333 22.5739 24.0796 21.8743 25 21.8743C25.9204 21.8743 26.6667 22.5739 26.6667 23.4368V32.8115Z" fill="#FF6188"/>
<path d="M16.6668 12.5H33.3333C33.3333 9.37502 32.0963 7.87268 30.2011 6.44065L33.0534 2.42912C33.5645 1.71046 33.3578 0.741515 32.5912 0.262315C31.8214 -0.215323 30.7895 -0.0230374 30.28 0.695616L27.2174 5.00226C26.5069 4.8176 25.7733 4.68713 25.0001 4.68713C24.227 4.68713 23.4934 4.8176 22.7829 5.00226L19.7201 0.695616C19.2107 -0.0230374 18.1755 -0.215323 17.409 0.262315C16.6424 0.741417 16.4357 1.71036 16.9468 2.42902L19.7991 6.44074C17.9038 7.87268 16.6668 9.37502 16.6668 12.5Z" fill="#FF6188"/>
</g>
</svg>
