<svg width="50" height="52" viewBox="0 0 50 52" fill="none" xmlns="http://www.w3.org/2000/svg">
<g opacity="0.8">
<path d="M47.7421 29.8436L41.336 25.0389C41.3157 25.0233 41.2921 25.0147 41.2714 24.9998C41.1733 24.9294 41.0673 24.8716 40.9613 24.8125C40.8811 24.768 40.803 24.719 40.7205 24.6819C40.6227 24.638 40.5195 24.6076 40.4167 24.5736C40.3186 24.5411 40.2216 24.5047 40.1215 24.4821C40.0292 24.461 39.9338 24.4532 39.8388 24.4406C39.7227 24.425 39.6074 24.4086 39.4909 24.4058C39.4646 24.405 39.4404 24.3984 39.4138 24.3984H36.211V23.9421C36.3111 23.9088 36.3305 23.8963 36.386 23.8596L41.1862 20.6592L41.1924 20.6549C41.4325 20.4945 41.6331 20.3003 41.8146 20.0931C41.8603 20.0407 41.9021 19.9878 41.9448 19.9324C42.1212 19.7021 42.2744 19.4581 42.3811 19.1942C42.3831 19.1895 42.3866 19.1864 42.3885 19.1816L45.5916 11.1739C46.2484 9.53021 45.4493 7.66747 43.807 7.00902C42.157 6.35528 40.299 7.15296 39.6421 8.79359L36.8077 15.8793L35.5409 16.7241C35.2754 16.5286 34.9641 16.3905 34.6091 16.3905H15.3908C15.0357 16.3905 14.7245 16.5286 14.459 16.7241L13.1922 15.8794L10.3578 8.79359C9.69934 7.15296 7.8397 6.35838 6.19287 7.00902C4.55065 7.66747 3.75146 9.53021 4.40831 11.1739L7.61138 19.1816C7.61338 19.1864 7.61688 19.1895 7.61878 19.1942C7.72549 19.4581 7.87844 19.7017 8.05471 19.932C8.09735 19.9875 8.1396 20.0407 8.18534 20.0931C8.36712 20.3003 8.56732 20.4946 8.80746 20.6549L8.81376 20.6592L13.6139 23.8596C13.6695 23.8963 13.6888 23.9088 13.7889 23.9421V24.3985H10.5861C10.5599 24.3985 10.5353 24.4051 10.5094 24.4059C10.3941 24.4086 10.2803 24.4252 10.1654 24.4401C10.0684 24.4531 9.97111 24.4612 9.87721 24.4827C9.78062 24.5046 9.68683 24.5401 9.59173 24.5714C9.48533 24.6062 9.37862 24.6378 9.27732 24.6832C9.19754 24.7191 9.12207 24.7665 9.04469 24.8095C8.93598 24.8694 8.82808 24.9287 8.72798 25.0003C8.70726 25.0151 8.68414 25.0237 8.66382 25.039L2.25769 29.8437C0.842288 30.904 0.556006 32.9122 1.61805 34.3277C2.24678 35.166 3.20863 35.6087 4.18299 35.6087C4.85085 35.6087 5.52491 35.4012 6.10198 34.9679L11.6532 30.8048H13.7889V32.8504C13.6888 32.884 13.6702 32.9059 13.6139 32.9434L8.80936 36.1465C8.78433 36.1629 8.76561 36.1853 8.74139 36.2025C8.63619 36.2767 8.53929 36.3608 8.4431 36.448C8.37933 36.5055 8.31447 36.561 8.25661 36.6228C8.17803 36.7061 8.10917 36.798 8.0396 36.8902C7.98094 36.968 7.92108 37.0439 7.87033 37.126C7.81638 37.2132 7.77223 37.3063 7.72649 37.3992C7.67764 37.4981 7.62949 37.5967 7.59156 37.6999C7.57864 37.734 7.55912 37.7633 7.54741 37.798L4.34435 47.4072C3.78439 49.0854 4.69159 50.8997 6.36975 51.4595C6.70598 51.5722 7.04852 51.6253 7.38325 51.6253C8.72518 51.6253 9.97481 50.7761 10.4222 49.4341L13.278 40.8666L14.6605 39.945C16.3559 43.9829 20.3465 46.8192 25.0002 46.8192C29.6539 46.8192 33.6444 43.9829 35.3398 39.945L36.7223 40.8666L39.5782 49.4341C40.0255 50.7761 41.2751 51.6253 42.6171 51.6253C42.9518 51.6253 43.2942 51.5722 43.6306 51.4595C45.3087 50.8996 46.2158 49.0854 45.656 47.4072L42.4529 37.798C42.4412 37.7632 42.4216 37.7339 42.4087 37.6999C42.3704 37.5963 42.3228 37.4978 42.2738 37.3984C42.2281 37.3058 42.1839 37.2131 42.1303 37.1263C42.079 37.0438 42.0189 36.9675 41.9602 36.8893C41.8906 36.7971 41.8218 36.706 41.7436 36.6227C41.6857 36.5609 41.6208 36.5054 41.5571 36.4479C41.4609 36.3607 41.3639 36.2766 41.2588 36.2024C41.2346 36.1852 41.2158 36.1628 41.1907 36.1464L36.3863 32.9433C36.3299 32.9058 36.3114 32.8839 36.2113 32.8503V30.8048H38.347L43.8981 34.9678C44.4752 35.401 45.1494 35.6088 45.8171 35.6088C46.7915 35.6088 47.7533 35.166 48.382 34.3277C49.4438 32.9122 49.1575 30.9039 47.7421 29.8436ZM26.6015 34.0069C26.6015 34.8914 25.8844 35.6085 25 35.6085C24.1155 35.6085 23.3984 34.8914 23.3984 34.0069V24.3977C23.3984 23.5132 24.1155 22.7961 25 22.7961C25.8844 22.7961 26.6015 23.5132 26.6015 24.3977V34.0069Z" fill="#FCE566"/>
<path d="M16.9922 13.1874H33.0077C33.0077 9.98426 31.819 8.44434 29.9978 6.97649L32.7387 2.86463C33.2298 2.128 33.0312 1.13482 32.2946 0.643631C31.5549 0.154048 30.5633 0.351142 30.0737 1.08777L27.1307 5.50213C26.448 5.31284 25.743 5.17911 25.0001 5.17911C24.2571 5.17911 23.5522 5.31284 22.8695 5.50213L19.9263 1.08777C19.4368 0.351142 18.4421 0.154048 17.7054 0.643631C16.9688 1.13472 16.7702 2.1279 17.2613 2.86453L20.0022 6.97659C18.1809 8.44434 16.9922 9.98426 16.9922 13.1874Z" fill="#FCE566"/>
</g>
</svg>
