<svg width="254" height="420" viewBox="0 0 254 420" fill="none" xmlns="http://www.w3.org/2000/svg">
<path d="M233.368 138.499L203.369 115.999C203.274 115.926 203.163 115.886 203.066 115.816C202.607 115.487 202.111 115.216 201.614 114.939C201.239 114.73 200.873 114.501 200.486 114.327C200.028 114.122 199.545 113.979 199.064 113.82C198.604 113.668 198.15 113.498 197.681 113.392C197.249 113.293 196.803 113.256 196.358 113.198C195.814 113.124 195.274 113.048 194.728 113.034C194.606 113.031 194.492 113 194.367 113H179.369V110.863C179.838 110.707 179.929 110.649 180.189 110.476L202.668 95.4896L202.697 95.4694C203.821 94.7185 204.76 93.8087 205.61 92.8383C205.824 92.5932 206.02 92.3457 206.22 92.086C207.046 91.0074 207.763 89.8651 208.263 88.629C208.272 88.6069 208.289 88.5924 208.298 88.5704L223.297 51.0712C226.373 43.3739 222.631 34.6509 214.94 31.5675C207.214 28.506 198.513 32.2415 195.437 39.9243L182.163 73.1058L176.231 77.0621C174.988 76.1466 173.53 75.4997 171.868 75.4997H81.8705C80.2078 75.4997 78.7505 76.1466 77.5074 77.0621L71.5749 73.1063L58.3017 39.9243C55.2183 32.2415 46.5098 28.5206 38.7979 31.5675C31.1076 34.6509 27.3651 43.3739 30.4411 51.0712L45.4406 88.5704C45.45 88.5924 45.4664 88.6069 45.4753 88.629C45.975 89.8651 46.6912 91.0055 47.5167 92.0841C47.7164 92.3443 47.9142 92.5932 48.1284 92.8383C48.9797 93.8087 49.9172 94.719 51.0417 95.4694L51.0712 95.4896L73.5497 110.476C73.8099 110.649 73.9003 110.707 74.3691 110.863V113H59.3709C59.2481 113 59.1328 113.031 59.0119 113.035C58.4719 113.048 57.9389 113.125 57.4008 113.195C56.9466 113.256 56.4909 113.294 56.0513 113.394C55.5989 113.497 55.1597 113.664 54.7144 113.81C54.2161 113.973 53.7164 114.121 53.242 114.333C52.8684 114.502 52.515 114.723 52.1527 114.925C51.6436 115.205 51.1383 115.483 50.6695 115.818C50.5725 115.888 50.4642 115.928 50.3691 116L20.37 138.499C13.7418 143.465 12.4012 152.869 17.3746 159.498C20.3189 163.423 24.8231 165.496 29.3859 165.496C32.5134 165.496 35.67 164.524 38.3723 162.496L64.3678 143H74.3691V152.579C73.9003 152.737 73.8132 152.839 73.5497 153.015L51.0506 168.015C50.9334 168.092 50.8458 168.196 50.7323 168.277C50.2397 168.625 49.7859 169.018 49.3355 169.427C49.0369 169.696 48.7331 169.956 48.4622 170.245C48.0942 170.635 47.7717 171.065 47.4459 171.498C47.1712 171.862 46.8909 172.217 46.6533 172.601C46.4006 173.01 46.1939 173.446 45.9797 173.881C45.7509 174.344 45.5255 174.806 45.3478 175.289C45.2873 175.449 45.1959 175.586 45.1411 175.749L30.1415 220.747C27.5193 228.606 31.7676 237.102 39.6262 239.724C41.2008 240.251 42.8048 240.5 44.3723 240.5C50.6564 240.5 56.5083 236.523 58.6031 230.239L71.9766 190.118L78.451 185.802C86.3902 204.711 105.077 217.993 126.87 217.993C148.663 217.993 167.35 204.711 175.289 185.802L181.764 190.118L195.137 230.239C197.232 236.523 203.084 240.5 209.368 240.5C210.935 240.5 212.539 240.251 214.114 239.724C221.973 237.102 226.22 228.606 223.599 220.747L208.599 175.749C208.544 175.586 208.452 175.448 208.392 175.289C208.213 174.804 207.99 174.343 207.761 173.877C207.546 173.443 207.34 173.009 207.088 172.603C206.848 172.217 206.567 171.859 206.292 171.493C205.966 171.061 205.644 170.635 205.278 170.245C205.007 169.955 204.702 169.695 204.404 169.426C203.954 169.018 203.5 168.624 203.007 168.276C202.894 168.196 202.806 168.091 202.689 168.014L180.19 153.015C179.926 152.839 179.839 152.736 179.371 152.579V143H189.372L215.367 162.495C218.069 164.523 221.226 165.497 224.353 165.497C228.916 165.497 233.42 163.423 236.365 159.498C241.337 152.869 239.996 143.464 233.368 138.499ZM134.369 157.995C134.369 162.137 131.011 165.495 126.869 165.495C122.727 165.495 119.369 162.137 119.369 157.995V112.997C119.369 108.855 122.727 105.496 126.869 105.496C131.011 105.496 134.369 108.855 134.369 112.997V157.995Z" fill="#191919"/>
<path d="M89.37 60.5001H164.368C164.368 45.5001 158.802 38.2889 150.274 31.4151L163.109 12.1598C165.409 8.71022 164.479 4.05927 161.029 1.75911C157.565 -0.53355 152.922 0.389421 150.629 3.83896L136.847 24.5109C133.65 23.6245 130.349 22.9982 126.87 22.9982C123.391 22.9982 120.09 23.6245 116.892 24.5109L103.11 3.83896C100.817 0.389421 96.1594 -0.53355 92.7099 1.75911C89.2603 4.0588 88.3303 8.70975 90.63 12.1593L103.465 31.4156C94.9364 38.2889 89.37 45.5001 89.37 60.5001Z" fill="#191919"/>
<path d="M33.3903 310.846C31.509 311.603 29.6818 312.165 27.9086 312.532C26.1571 312.9 24.3299 313.084 22.427 313.084C19.378 313.084 16.675 312.641 14.318 311.754C11.9826 310.846 10.004 309.505 8.38225 307.732C6.78209 305.959 5.56034 303.764 4.71701 301.147C3.8953 298.509 3.48444 295.45 3.48444 291.968C3.48444 288.4 3.93855 285.232 4.84675 282.464C5.75495 279.675 7.05239 277.329 8.73905 275.426C10.4257 273.501 12.4692 272.042 14.8694 271.047C17.2913 270.031 20.0051 269.523 23.0108 269.523C23.9839 269.523 24.8921 269.544 25.7354 269.587C26.6004 269.631 27.4437 269.717 28.2654 269.847C29.0871 269.955 29.9196 270.106 30.763 270.301C31.6063 270.496 32.4821 270.744 33.3903 271.047V278.961C31.5522 278.096 29.8007 277.48 28.1357 277.113C26.4706 276.745 24.957 276.561 23.5947 276.561C21.5836 276.561 19.8645 276.929 18.4374 277.664C17.0102 278.378 15.8317 279.394 14.9019 280.713C13.9937 282.01 13.3233 283.567 12.8908 285.384C12.4584 287.178 12.2421 289.157 12.2421 291.319C12.2421 293.612 12.4584 295.666 12.8908 297.482C13.3449 299.277 14.0369 300.801 14.9667 302.056C15.8966 303.31 17.0859 304.272 18.5347 304.942C19.9835 305.591 21.7026 305.916 23.692 305.916C24.4056 305.916 25.1732 305.851 25.9949 305.721C26.8382 305.57 27.6816 305.386 28.5249 305.17C29.3899 304.932 30.2332 304.661 31.0549 304.359C31.8982 304.034 32.6767 303.71 33.3903 303.386V310.846ZM69.4524 312.5V294.044H55.0509V312.5H47.0717V270.106H55.0509V287.135H69.4524V270.106H77.4316V312.5H69.4524ZM122.479 291.125C122.479 294.974 122.024 298.293 121.116 301.083C120.23 303.872 118.997 306.164 117.419 307.959C115.862 309.754 114.024 311.084 111.904 311.949C109.807 312.814 107.558 313.246 105.158 313.246C99.5788 313.246 95.3838 311.397 92.5727 307.699C89.7616 303.98 88.356 298.585 88.356 291.514C88.356 287.665 88.7993 284.346 89.6859 281.556C90.5941 278.767 91.8267 276.475 93.3836 274.68C94.9621 272.885 96.8002 271.555 98.8977 270.69C101.017 269.825 103.277 269.393 105.677 269.393C111.256 269.393 115.451 271.242 118.262 274.939C121.073 278.637 122.479 284.032 122.479 291.125ZM114.045 291.514C114.045 286.497 113.375 282.756 112.034 280.291C110.693 277.826 108.488 276.594 105.417 276.594C103.882 276.594 102.574 276.918 101.493 277.567C100.411 278.194 99.5139 279.124 98.8004 280.356C98.1084 281.589 97.6002 283.113 97.2759 284.93C96.9515 286.724 96.7893 288.789 96.7893 291.125C96.7893 296.142 97.4597 299.882 98.8004 302.348C100.163 304.813 102.368 306.045 105.417 306.045C106.953 306.045 108.261 305.732 109.342 305.105C110.445 304.456 111.342 303.515 112.034 302.283C112.726 301.05 113.234 299.536 113.559 297.742C113.883 295.925 114.045 293.849 114.045 291.514ZM165.644 291.125C165.644 294.974 165.19 298.293 164.282 301.083C163.395 303.872 162.163 306.164 160.584 307.959C159.027 309.754 157.189 311.084 155.07 311.949C152.973 312.814 150.724 313.246 148.323 313.246C142.744 313.246 138.549 311.397 135.738 307.699C132.927 303.98 131.522 298.585 131.522 291.514C131.522 287.665 131.965 284.346 132.851 281.556C133.76 278.767 134.992 276.475 136.549 274.68C138.128 272.885 139.966 271.555 142.063 270.69C144.182 269.825 146.442 269.393 148.842 269.393C154.421 269.393 158.616 271.242 161.427 274.939C164.239 278.637 165.644 284.032 165.644 291.125ZM157.211 291.514C157.211 286.497 156.54 282.756 155.2 280.291C153.859 277.826 151.653 276.594 148.583 276.594C147.048 276.594 145.739 276.918 144.658 277.567C143.577 278.194 142.68 279.124 141.966 280.356C141.274 281.589 140.766 283.113 140.441 284.93C140.117 286.724 139.955 288.789 139.955 291.125C139.955 296.142 140.625 299.882 141.966 302.348C143.328 304.813 145.534 306.045 148.583 306.045C150.118 306.045 151.426 305.732 152.508 305.105C153.61 304.456 154.508 303.515 155.2 302.283C155.892 301.05 156.4 299.536 156.724 297.742C157.049 295.925 157.211 293.849 157.211 291.514ZM206.572 299.688C206.572 302.002 206.139 304.013 205.274 305.721C204.431 307.429 203.242 308.846 201.706 309.97C200.171 311.073 198.344 311.895 196.225 312.435C194.105 312.976 191.792 313.246 189.283 313.246C187.056 313.246 184.905 313.116 182.829 312.857C180.753 312.597 178.698 312.165 176.666 311.559V303.677C177.661 304.023 178.698 304.348 179.78 304.651C180.861 304.953 181.942 305.224 183.023 305.461C184.126 305.678 185.218 305.851 186.299 305.98C187.38 306.11 188.429 306.175 189.446 306.175C190.959 306.175 192.246 306.045 193.305 305.786C194.365 305.526 195.23 305.17 195.9 304.715C196.571 304.261 197.057 303.721 197.36 303.094C197.663 302.467 197.814 301.775 197.814 301.018C197.814 299.98 197.511 299.115 196.906 298.423C196.322 297.709 195.543 297.082 194.57 296.542C193.597 296.001 192.484 295.514 191.229 295.082C189.997 294.649 188.732 294.185 187.434 293.687C186.159 293.19 184.894 292.628 183.64 292.001C182.407 291.373 181.304 290.595 180.331 289.665C179.358 288.735 178.569 287.633 177.963 286.357C177.379 285.059 177.087 283.502 177.087 281.686C177.087 280.021 177.39 278.442 177.996 276.95C178.601 275.458 179.553 274.161 180.85 273.058C182.147 271.934 183.812 271.047 185.845 270.398C187.878 269.728 190.332 269.393 193.208 269.393C194.051 269.393 194.927 269.436 195.835 269.523C196.765 269.587 197.673 269.685 198.56 269.814C199.468 269.923 200.333 270.063 201.155 270.236C201.998 270.387 202.766 270.55 203.458 270.723V278.021C202.766 277.761 202.009 277.523 201.187 277.307C200.366 277.091 199.511 276.907 198.625 276.756C197.76 276.583 196.884 276.453 195.998 276.366C195.111 276.28 194.268 276.237 193.468 276.237C192.062 276.237 190.873 276.356 189.9 276.594C188.927 276.81 188.126 277.123 187.499 277.534C186.872 277.923 186.418 278.41 186.137 278.994C185.856 279.578 185.715 280.226 185.715 280.94C185.715 281.827 186.007 282.594 186.591 283.243C187.197 283.87 187.986 284.443 188.959 284.962C189.954 285.459 191.067 285.935 192.3 286.389C193.554 286.822 194.83 287.297 196.127 287.816C197.446 288.314 198.722 288.887 199.955 289.535C201.209 290.184 202.323 290.973 203.296 291.903C204.29 292.833 205.08 293.936 205.663 295.212C206.269 296.466 206.572 297.958 206.572 299.688ZM222.621 312.5V270.106H248.148V276.853H230.73V287.395H247.337V293.979H230.73V305.753H248.148V312.5H222.621ZM28.7974 376.5V334.106H36.9063V369.656H54.8109V376.5H28.7974ZM71.5413 376.5V334.106H97.0683V340.853H79.6503V351.395H96.2574V357.979H79.6503V369.753H97.0683V376.5H71.5413ZM132.255 376.5H121.681L108.739 334.106H117.788L124.957 359.633L127.26 368.002L129.66 359.147L136.763 334.106H145.261L132.255 376.5ZM157.872 376.5V334.106H183.399V340.853H165.981V351.395H182.589V357.979H165.981V369.753H183.399V376.5H157.872ZM201.46 376.5V334.106H209.569V369.656H227.473V376.5H201.46Z" fill="#191919"/>
</svg>
