<svg width="14" height="18" viewBox="0 0 14 18" fill="none" xmlns="http://www.w3.org/2000/svg">
<path d="M5.9759 6C5.9759 6.55228 5.5282 7 4.97589 7C4.42361 7 3.97589 6.55228 3.97589 6C3.97589 5.44771 4.42361 5 4.97589 5C5.5282 5 5.9759 5.44771 5.9759 6Z" fill="#FCE566"/>
<path d="M8.9712 7C9.5235 7 9.9712 6.55228 9.9712 6C9.9712 5.44771 9.5235 5 8.9712 5C8.4189 5 7.9712 5.44771 7.9712 6C7.9712 6.55228 8.4189 7 8.9712 7Z" fill="#FCE566"/>
<path fill-rule="evenodd" clip-rule="evenodd" d="M14 17.9999V7C14 3.13401 10.866 0 7 0C3.13401 0 0 3.13401 0 7V18H2.82846L4.24264 16.5858L5.6569 18H8.3433L9.7574 16.5858L11.1717 18L14 17.9999ZM12 7C12 4.23858 9.7614 2 7 2C4.23858 2 2 4.23858 2 7V16L4.24264 13.7573L7 16.5147L9.7574 13.7573L12 15.9999V7Z" fill="#FCE566"/>
</svg>
