<svg xmlns="http://www.w3.org/2000/svg" fill="current">
    <symbol id="i_console" fill="current" viewBox="0 0 24 20">
        <path d="M5.0333 12.8284L6.44751 14.2426L10.6902 9.99997L6.44751 5.75733L5.0333 7.17155L7.86172 9.99997L5.0333 12.8284Z" fill="current"/>
        <path d="M15 12H11V14H15V12Z" fill="current"/>
        <path fill-rule="evenodd" clip-rule="evenodd" d="M2 0C0.895431 0 0 0.895431 0 2V18C0 19.1046 0.89543 20 2 20H22C23.1046 20 24 19.1046 24 18V2C24 0.895431 23.1046 0 22 0H2ZM22 2H2L2 18H22V2Z" fill="current"/>
    </symbol>
    <symbol id="i_forum" viewBox="0 0 28 28">
        <path d="M17.5032 7.81395C17.5032 8.34791 17.9329 8.7907 18.4799 8.7907C19.0139 8.7907 19.4567 8.34791 19.4567 7.81395C19.4567 7.28 19.0139 6.83721 18.4799 6.83721C17.946 6.83721 17.5032 7.28 17.5032 7.81395Z" fill="current"/>
        <path d="M22.1395 8.7907C21.5926 8.7907 21.1628 8.34791 21.1628 7.81395C21.1628 7.28 21.6056 6.83721 22.1395 6.83721C22.6735 6.83721 23.1163 7.28 23.1163 7.81395C23.1163 8.34791 22.6735 8.7907 22.1395 8.7907Z" fill="current"/>
        <path d="M13.8309 7.81395C13.8309 8.34791 14.2606 8.7907 14.8076 8.7907C15.3546 8.7907 15.7843 8.34791 15.7843 7.81395C15.7843 7.28 15.3416 6.83721 14.8076 6.83721C14.2736 6.83721 13.8309 7.28 13.8309 7.81395Z" fill="current"/>
        <path fill-rule="evenodd" clip-rule="evenodd" d="M25.3953 14.9018C27.0434 14.0436 28 12.3717 28 10.2884V5.2093C28 2.13581 25.8512 0 22.7907 0H14.3256C12.2476 0 10.5789 0.961962 9.71876 2.60465H6.83721C2.48745 2.60465 0 5.09209 0 9.44186V16.4745C0 20.8242 2.48745 23.3117 6.83721 23.3117H11.7209V26.0465H8.00918C7.47522 26.0465 7.03243 26.4893 7.03243 27.0233C7.03243 27.5572 7.47522 28 8.00918 28H17.3859C17.9199 28 18.3627 27.5572 18.3627 27.0233C18.3627 26.4893 17.9199 26.0465 17.3859 26.0465H13.6744V23.3117H18.5581C22.9079 23.3117 25.3953 20.8242 25.3953 16.4614V14.9018ZM15.2516 18.1399C15.0336 18.1493 14.8149 18.1197 14.606 18.0495C14.5012 18.0153 14.3987 17.9719 14.2995 17.92C13.7135 17.6075 13.3488 16.9954 13.3488 16.3312V15.4195C12.2549 15.2502 11.2912 14.7684 10.5619 14.0521C9.6372 13.1275 9.11628 11.7861 9.11628 10.2884V5.2093C9.11628 4.98809 9.12699 4.77089 9.14839 4.55814H6.83721C3.55534 4.55814 1.95349 6.16 1.95349 9.44186V16.4745C1.95349 19.7563 3.55534 21.3582 6.83721 21.3582H18.5581C21.84 21.3582 23.4419 19.7563 23.4419 16.4745V15.4648C23.2275 15.4867 23.0105 15.4977 22.7907 15.4977H19.7042L16.1879 17.8418C15.8989 18.0345 15.5765 18.127 15.2516 18.1399ZM24.106 13.3228C23.7023 13.466 23.2595 13.5312 22.7907 13.5312H19.4046C19.2093 13.5312 19.014 13.5963 18.8577 13.7005L15.3023 16.0837V14.521C15.3023 13.987 14.8595 13.5442 14.3256 13.5442C13.3358 13.5442 12.5154 13.2446 11.9423 12.6716C11.3693 12.0986 11.0698 11.2782 11.0698 10.2884V5.2093C11.0698 4.74046 11.1479 4.29767 11.2781 3.90698C11.7209 2.66977 12.8279 1.95349 14.3256 1.95349V1.94045H22.7907C24.7963 1.94045 26.0465 3.19068 26.0465 5.19627V10.2754C26.0465 11.773 25.3433 12.88 24.106 13.3228Z" fill="current"/>
    </symbol>
    <symbol id="i_logo-bug" viewBox="0 0 17 18">
        <path d="M16.4248 10.3499L14.1749 8.66245C14.1677 8.65696 14.1595 8.65394 14.1522 8.6487C14.1177 8.62399 14.0805 8.60367 14.0433 8.58293C14.0151 8.56728 13.9877 8.55009 13.9587 8.53705C13.9243 8.52165 13.8881 8.51096 13.852 8.49901C13.8175 8.48762 13.7835 8.47482 13.7483 8.46688C13.7159 8.45946 13.6824 8.45671 13.649 8.45232C13.6083 8.44684 13.5678 8.44107 13.5268 8.44009C13.5176 8.4398 13.5091 8.43748 13.4998 8.43748H12.3749V8.27721C12.4101 8.26553 12.4169 8.26114 12.4363 8.24824L14.1223 7.12422L14.1245 7.12271C14.2088 7.06639 14.2792 6.99815 14.3429 6.92538C14.359 6.90699 14.3737 6.88843 14.3887 6.86895C14.4506 6.78805 14.5045 6.70238 14.5419 6.60967C14.5426 6.60802 14.5439 6.60693 14.5445 6.60528L15.6695 3.79284C15.9002 3.21554 15.6195 2.56132 15.0427 2.33006C14.4632 2.10045 13.8106 2.38061 13.58 2.95683L12.5845 5.44544L12.1395 5.74215C12.0463 5.67349 11.937 5.62498 11.8123 5.62498H5.06249C4.93779 5.62498 4.82849 5.67349 4.73526 5.74215L4.29032 5.44547L3.29483 2.95683C3.06358 2.38061 2.41044 2.10154 1.83205 2.33006C1.25528 2.56132 0.974588 3.21554 1.20528 3.79284L2.33025 6.60528C2.33095 6.60693 2.33218 6.60802 2.33285 6.60967C2.37033 6.70238 2.42405 6.78791 2.48596 6.86881C2.50093 6.88832 2.51577 6.90699 2.53184 6.92538C2.59568 6.99815 2.66599 7.06642 2.75033 7.12271L2.75255 7.12422L4.43843 8.24824C4.45794 8.26114 4.46473 8.26553 4.49989 8.27721V8.43752H3.37503C3.36581 8.43752 3.35717 8.43984 3.3481 8.44012C3.3076 8.44107 3.26762 8.44691 3.22726 8.45214C3.1932 8.45668 3.15902 8.45953 3.12605 8.46709C3.09212 8.47478 3.05918 8.48727 3.02578 8.49823C2.98841 8.51047 2.95093 8.52158 2.91536 8.5375C2.88734 8.55013 2.86083 8.56675 2.83365 8.58187C2.79547 8.60289 2.75758 8.62374 2.72242 8.64888C2.71514 8.65408 2.70702 8.65711 2.69988 8.66248L0.449951 10.35C-0.0471592 10.7224 -0.147706 11.4277 0.225302 11.9248C0.446119 12.2192 0.783936 12.3747 1.12615 12.3747C1.36071 12.3747 1.59745 12.3018 1.80013 12.1497L3.74979 10.6875H4.49989V11.4059C4.46473 11.4178 4.45819 11.4255 4.43843 11.4386L2.751 12.5636C2.74221 12.5694 2.73564 12.5772 2.72713 12.5833C2.69018 12.6093 2.65615 12.6389 2.62236 12.6695C2.59997 12.6897 2.57719 12.7092 2.55687 12.7309C2.52927 12.7601 2.50508 12.7924 2.48065 12.8248C2.46005 12.8521 2.43902 12.8788 2.4212 12.9076C2.40225 12.9382 2.38675 12.9709 2.37068 13.0036C2.35352 13.0383 2.33661 13.0729 2.32329 13.1092C2.31875 13.1211 2.3119 13.1314 2.30779 13.1436L1.18282 16.5185C0.986155 17.1079 1.30478 17.7452 1.89417 17.9418C2.01226 17.9813 2.13257 18 2.25013 18C2.72143 18 3.16033 17.7017 3.31744 17.2304L4.32045 14.2214L4.80603 13.8977C5.40147 15.3159 6.80301 16.312 8.43746 16.312C10.0719 16.312 11.4735 15.3159 12.0689 13.8977L12.5545 14.2214L13.5575 17.2304C13.7146 17.7017 14.1535 18 14.6248 18C14.7424 18 14.8626 17.9813 14.9808 17.9418C15.5701 17.7451 15.8887 17.1079 15.6921 16.5185L14.5671 13.1436C14.563 13.1314 14.5561 13.1211 14.5516 13.1092C14.5382 13.0728 14.5214 13.0382 14.5042 13.0033C14.4882 12.9707 14.4727 12.9382 14.4538 12.9077C14.4358 12.8787 14.4147 12.852 14.3941 12.8245C14.3697 12.7921 14.3455 12.7601 14.318 12.7308C14.2977 12.7092 14.2749 12.6896 14.2525 12.6695C14.2187 12.6388 14.1847 12.6093 14.1478 12.5832C14.1393 12.5772 14.1326 12.5693 14.1239 12.5636L12.4365 11.4386C12.4167 11.4254 12.4102 11.4177 12.375 11.4059V10.6875H13.1251L15.0747 12.1496C15.2774 12.3018 15.5142 12.3747 15.7487 12.3747C16.0909 12.3747 16.4287 12.2192 16.6496 11.9248C17.0225 11.4277 16.9219 10.7223 16.4248 10.3499ZM8.99989 11.8121C8.99989 12.1228 8.74803 12.3746 8.43739 12.3746C8.12675 12.3746 7.87489 12.1228 7.87489 11.8121V8.43724C7.87489 8.1266 8.12675 7.87474 8.43739 7.87474C8.74803 7.87474 8.99989 8.1266 8.99989 8.43724V11.8121Z" fill="current"/>
        <path d="M5.62496 4.50001H11.2498C11.2498 3.37501 10.8324 2.83416 10.1927 2.31863L11.1554 0.874481C11.3278 0.615766 11.2581 0.266945 10.9994 0.0944333C10.7396 -0.0775162 10.3913 -0.00829345 10.2194 0.250422L9.18573 1.80081C8.94597 1.73433 8.69836 1.68737 8.43743 1.68737C8.1765 1.68737 7.92893 1.73433 7.68913 1.80081L6.65546 0.250422C6.48351 -0.00829345 6.13416 -0.0775162 5.87544 0.0944333C5.61673 0.26691 5.54698 0.615731 5.71946 0.874446L6.68211 2.31867C6.04244 2.83416 5.62496 3.37501 5.62496 4.50001Z" fill="current"/>
    </symbol>
    <symbol id="i_open-tree" viewBox="0 0 6 9">
        <path d="M0.0180664 0.873703L0.0180664 8.1263C0.0180664 8.28604 0.196095 8.38131 0.329006 8.29271L5.76845 4.66641C5.8872 4.58725 5.8872 4.41275 5.76845 4.33359L0.329006 0.707294C0.196095 0.618686 0.0180664 0.713964 0.0180664 0.873703Z" fill="current"/>
    </symbol>
    <symbol id="i_profile" viewBox="0 0 29 28">
        <path fill-rule="evenodd" clip-rule="evenodd" d="M14.4617 15.9926C11.5055 15.9014 9.29151 13.5963 9.29151 10.7572C9.29151 7.86605 11.6487 5.50884 14.5399 5.50884C17.431 5.50884 19.7883 7.86605 19.7883 10.7572C19.7752 13.6093 17.5483 15.9014 14.7222 15.9926H14.4617ZM14.5269 7.4493C12.7036 7.4493 11.232 8.93395 11.232 10.7442C11.232 12.5284 12.6255 13.974 14.3966 14.0391C14.4357 14.026 14.5659 14.026 14.6962 14.0391C16.4413 13.9479 17.8087 12.5154 17.8217 10.7442C17.8217 8.93395 16.3501 7.4493 14.5269 7.4493Z" fill="current"/>
        <path fill-rule="evenodd" clip-rule="evenodd" d="M0.526855 14C0.526855 21.572 6.56126 27.7542 14.076 27.9929C14.2257 27.9976 14.376 28 14.5269 28C14.7117 28 14.8957 27.9964 15.0788 27.9893C22.5465 27.6987 28.5269 21.538 28.5269 14C28.5269 6.27721 22.2496 0 14.5269 0C6.80406 0 0.526855 6.27721 0.526855 14ZM23.7311 21.7632C25.5036 19.665 26.5734 16.9549 26.5734 14C26.5734 7.35814 21.1687 1.95349 14.5269 1.95349C7.885 1.95349 2.48034 7.35814 2.48034 14C2.48034 16.9543 3.54962 19.6638 5.32145 21.7618C5.78807 20.8897 6.52859 20.0962 7.50732 19.4437C11.3883 16.8651 17.6785 16.8651 21.5464 19.4437C22.5243 20.1036 23.2644 20.8945 23.7311 21.7632ZM14.5269 26.0465C11.7008 26.0465 8.97895 25.0567 6.81709 23.2465C7.05151 22.4521 7.6636 21.6837 8.58825 21.0586C11.818 18.9228 17.2487 18.9228 20.4524 21.0586C21.3771 21.6837 22.0022 22.4521 22.2366 23.2465C20.0748 25.0567 17.3529 26.0465 14.5269 26.0465Z" fill="current"/>
    </symbol>
    <symbol id="i_leaders" viewBox="0 0 29 28">
        <path fill-rule="evenodd" clip-rule="evenodd" d="M15.0791 13.6684C15.4986 13.914 15.8688 14 16.165 14C16.5722 14 16.856 13.8403 16.9671 13.7421C17.2139 13.5579 17.7445 13.0297 17.4854 11.8875L17.2509 10.8681L18.0901 10.0329C18.596 9.51707 18.7934 8.90297 18.6083 8.338C18.4356 7.77303 17.9173 7.38 17.2016 7.25718L16.128 7.07296L15.5233 5.86935C14.8693 4.55518 13.2527 4.55518 12.5864 5.86935L11.9817 7.07296L10.9081 7.25718C10.1924 7.38 9.68643 7.77303 9.50132 8.338C9.31622 8.90297 9.50133 9.51707 10.0196 10.0329L10.8587 10.8681L10.6243 11.8875C10.3651 13.0174 10.8958 13.5578 11.1426 13.7298C11.3894 13.9017 12.0557 14.2579 13.0676 13.6561L14.0672 13.0666L15.0791 13.6684ZM14.9063 11.4331C14.6595 11.2857 14.3633 11.212 14.0672 11.212C13.771 11.212 13.4748 11.2734 13.2404 11.4208L12.5493 11.8261L12.6974 11.1629C12.8085 10.647 12.6357 10.0206 12.2532 9.63988L11.6238 9.01353L12.4013 8.8907C12.8949 8.80473 13.3761 8.44855 13.5982 8.0064L14.0672 7.08525L14.5484 8.0064C14.7706 8.44855 15.2518 8.80473 15.7454 8.8907L16.5229 9.02578L15.8935 9.65218C15.511 10.0329 15.3259 10.6593 15.4493 11.1751L15.5974 11.8384L14.9063 11.4331Z"/>
        <path fill-rule="evenodd" clip-rule="evenodd" d="M4.7418 14.2786C6.25467 17.5345 9.47433 19.8681 13.2615 20.156V22.1395H10.2898C8.28226 22.1395 6.65773 23.7414 6.65773 25.7209V26.0465H6.32754C5.78603 26.0465 5.33697 26.4893 5.33697 27.0233C5.33697 27.5572 5.78603 28 6.32754 28H22.1766C22.7181 28 23.1672 27.5572 23.1672 27.0233C23.1672 26.4893 22.7181 26.0465 22.1766 26.0465H21.8464V25.7209C21.8464 23.7414 20.2219 22.1395 18.2143 22.1395H15.2426V20.1182C18.8251 19.707 21.852 17.4608 23.3268 14.3622C24.263 13.9947 25.0013 13.3961 25.6634 12.8539C25.6689 12.8486 25.6857 12.8342 25.7053 12.8174C25.7332 12.7937 25.7668 12.765 25.7823 12.7498C27.2219 11.3302 28.054 9.36372 28.054 7.37116C28.054 4.96186 26.1257 3.00837 23.7615 3.00837H23.3977C22.3001 1.20717 20.299 0 18.0162 0H10.0917C7.78702 0 5.76941 1.23048 4.6788 3.06043H4.34641C1.94263 3.06043 0.0539551 4.92276 0.0539551 7.29299C0.0539551 9.20741 0.806785 11.0176 2.32565 12.6716C3.03176 13.3678 3.85767 13.9187 4.7418 14.2786ZM14.054 18.2326C17.3792 18.2326 20.2473 16.2905 21.5546 13.4947C21.5651 13.396 21.5917 13.2983 21.6351 13.2056C22.0841 12.1898 22.3087 11.1088 22.3087 9.97581V6.17805C22.3043 3.85054 20.3777 1.95349 18.0162 1.95349H10.0917C7.72755 1.95349 5.79925 3.85488 5.79925 6.18605V9.90936C5.80081 11.0253 6.02538 12.1152 6.48603 13.1535C6.54022 13.2737 6.56661 13.4 6.56786 13.5256C7.88173 16.3048 10.7409 18.2326 14.054 18.2326ZM24.283 11.4476C24.2516 11.4729 24.2203 11.4982 24.1868 11.5256C24.2547 11.0575 24.2898 10.5792 24.2898 10.093L24.2898 6.06883C24.2898 5.71721 24.2634 5.35256 24.1973 5.00093C25.2672 5.2093 26.0728 6.19907 26.0728 7.37116C26.0728 8.85581 25.4521 10.3144 24.3955 11.3563C24.3558 11.3888 24.3193 11.4183 24.283 11.4476ZM3.81811 10.093C3.81811 10.56 3.85053 11.0198 3.91326 11.4702C3.85993 11.4275 3.80824 11.3832 3.76528 11.3302C2.61622 10.08 2.03509 8.71253 2.03509 7.29299C2.03509 6.17299 2.81433 5.26136 3.88414 5.05299C3.84452 5.36555 3.81811 5.67811 3.81811 5.99067L3.81811 10.093ZM19.8653 26.0465V25.7209C19.8653 24.8223 19.1257 24.093 18.2143 24.093H10.2898C9.37848 24.093 8.63886 24.8223 8.63886 25.7209V26.0465H19.8653Z"/>
    </symbol>
</svg>
