<svg width="16" height="16" viewBox="0 0 16 16" fill="none" xmlns="http://www.w3.org/2000/svg">
    <path d="M15.5811 0.0832247C15.4557 0.0122626 15.3164 -0.0138752 15.1793 0.00783177C15.0423 0.0295388 14.913 0.0982046 14.8065 0.205894L11.0138 4.06997L8.568 0.336563C8.49728 0.237383 8.40999 0.157875 8.31201 0.103394C8.21403 0.0489127 8.10764 0.020723 8 0.020723C7.89236 0.020723 7.78597 0.0489127 7.68799 0.103394C7.59001 0.157875 7.50272 0.237383 7.432 0.336563L4.98618 4.06997L1.19273 0.205894C1.08654 0.0977947 0.95736 0.0289088 0.820303 0.007303C0.683246 -0.0143028 0.54399 0.0122657 0.418841 0.0838974C0.293691 0.155529 0.18783 0.269259 0.113652 0.411768C0.0394747 0.554278 5.18013e-05 0.71967 0 0.888575V13.3333C0 14.0405 0.229869 14.7188 0.63904 15.2189C1.04821 15.719 1.60316 16 2.18182 16H13.8182C14.3968 16 14.9518 15.719 15.361 15.2189C15.7701 14.7188 16 14.0405 16 13.3333V0.888575C16 0.719546 15.9607 0.554005 15.8865 0.411363C15.8123 0.268722 15.7063 0.154893 15.5811 0.0832247ZM14.5455 13.3333C14.5455 13.569 14.4688 13.7951 14.3324 13.9618C14.1961 14.1285 14.0111 14.2222 13.8182 14.2222H2.18182C1.98893 14.2222 1.80395 14.1285 1.66756 13.9618C1.53117 13.7951 1.45455 13.569 1.45455 13.3333V12.4444H14.5455V13.3333ZM14.5455 10.6666H1.45455V2.78639L4.62545 6.01579C4.69963 6.09186 4.78556 6.14893 4.87814 6.18359C4.97072 6.21826 5.06806 6.22981 5.16436 6.21757C5.26054 6.20568 5.35382 6.17046 5.43873 6.11399C5.52365 6.05752 5.5985 5.98092 5.65891 5.88868L8 2.31083L10.3411 5.88779C10.4016 5.9802 10.4765 6.05693 10.5615 6.11347C10.6466 6.17002 10.74 6.20524 10.8363 6.21708C10.9326 6.22892 11.0299 6.21714 11.1225 6.18242C11.215 6.1477 11.301 6.09075 11.3753 6.0149L14.5455 2.78639V10.6666Z" fill="black"/>
    <path d="M9.45277 7.11084H6.54368C6.35079 7.11084 6.16581 7.20449 6.02942 7.37119C5.89303 7.5379 5.81641 7.76399 5.81641 7.99975C5.81641 8.2355 5.89303 8.4616 6.02942 8.6283C6.16581 8.795 6.35079 8.88865 6.54368 8.88865H9.45277C9.64565 8.88865 9.83064 8.795 9.96703 8.6283C10.1034 8.4616 10.18 8.2355 10.18 7.99975C10.18 7.76399 10.1034 7.5379 9.96703 7.37119C9.83064 7.20449 9.64565 7.11084 9.45277 7.11084Z" fill="black"/>
</svg>
